<?xml version="1.0" standalone="no"?>
<!DOCTYPE svg PUBLIC "-//W3C//DTD SVG 20010904//EN"
 "http://www.w3.org/TR/2001/REC-SVG-20010904/DTD/svg10.dtd">
<svg version="1.0" xmlns="http://www.w3.org/2000/svg"
 width="419.000000pt" height="419.000000pt" viewBox="0 0 419.000000 419.000000"
 preserveAspectRatio="xMidYMid meet">
<metadata>
Created by potrace 1.14, written by Peter Selinger 2001-2017
</metadata>
<g transform="translate(0.000000,419.000000) scale(0.100000,-0.100000)"
fill="#000000" stroke="none">
<path d="M2075 4024 c-324 -24 -596 -96 -865 -230 -649 -322 -1084 -891 -1191
-1559 -19 -116 -16 -419 4 -530 91 -491 342 -875 762 -1167 189 -132 485 -261
725 -317 325 -76 695 -76 1020 0 234 55 526 181 723 313 658 441 1017 1184
922 1909 -59 448 -280 835 -635 1109 -93 72 -219 158 -231 158 -5 0 -1 -16 7
-35 7 -19 14 -49 14 -67 0 -29 10 -41 87 -103 149 -121 300 -310 392 -490 83
-162 133 -325 162 -524 17 -119 6 -400 -20 -516 -75 -339 -240 -635 -497 -891
-263 -261 -602 -445 -976 -528 -176 -39 -300 -49 -508 -43 -208 6 -355 32
-540 93 -140 46 -363 158 -480 241 -120 86 -306 271 -387 386 -211 300 -317
683 -284 1030 14 155 33 243 81 388 102 307 299 594 555 808 553 461 1315 595
1978 346 92 -34 96 -35 137 -20 23 8 55 15 71 15 48 0 33 15 -53 53 -185 81
-338 125 -524 151 -113 15 -361 27 -449 20z"/>
<path d="M2190 3857 c0 -9 166 -100 245 -135 90 -39 222 -66 290 -59 53 5 135
40 135 56 0 21 -221 88 -380 115 -96 17 -290 32 -290 23z"/>
<path d="M1705 3800 c-645 -171 -1123 -650 -1266 -1267 -32 -139 -37 -413 -11
-568 105 -612 581 -1111 1219 -1276 916 -236 1879 262 2158 1116 63 194 88
431 66 623 -15 129 -18 136 -45 126 -11 -5 -55 -8 -96 -8 -92 1 -155 21 -346
115 -161 78 -216 93 -324 87 -92 -5 -141 -30 -211 -105 -90 -96 -136 -204
-174 -409 -33 -176 -34 -181 -61 -235 -59 -119 -181 -151 -274 -72 -64 54
-103 182 -121 403 -15 179 -33 270 -71 352 -34 74 -92 136 -155 164 -66 30
-226 24 -428 -15 -126 -25 -186 -32 -233 -28 -82 6 -148 40 -187 96 -25 36
-30 52 -29 99 1 69 18 105 77 159 82 76 215 131 427 178 63 14 147 41 185 59
72 34 135 80 135 98 0 6 -23 36 -52 67 -79 87 -105 164 -78 235 8 23 7 26 -13
25 -12 0 -53 -8 -92 -19z"/>
<path d="M2000 3809 c-81 -33 -80 -98 5 -179 47 -45 65 -80 65 -126 0 -104
-136 -190 -404 -254 -184 -43 -278 -83 -337 -139 -57 -55 -64 -92 -25 -138 37
-43 127 -44 340 -3 186 35 297 40 378 16 192 -56 292 -230 318 -558 24 -293
69 -401 155 -368 37 14 59 71 90 235 45 244 98 365 203 471 154 154 344 164
605 33 241 -121 375 -145 394 -71 16 67 -85 169 -237 239 -305 141 -398 201
-440 284 -37 72 -25 127 54 242 38 56 46 76 46 113 0 35 -6 51 -26 71 -24 24
-31 25 -89 20 -53 -4 -82 -14 -169 -61 -78 -41 -122 -58 -168 -65 -155 -21
-325 32 -537 168 -120 77 -166 92 -221 70z"/>
<path d="M3246 3414 c-25 -36 -40 -71 -43 -98 -5 -39 -2 -45 40 -88 30 -29 82
-63 149 -96 171 -84 298 -141 298 -133 0 14 -72 126 -128 201 -63 83 -247 270
-265 270 -7 0 -29 -25 -51 -56z"/>
</g>
</svg>
